<svg width="21" height="20" viewBox="0 0 21 20" fill="none" xmlns="http://www.w3.org/2000/svg">
<path d="M5.25781 18.8725C3.83074 18.745 3.43462 18.5996 2.75918 17.9568C2.31989 17.536 1.78156 16.8473 1.56319 16.4264C1.34481 16.0056 0.961385 15.5133 0.707459 15.3347C-0.0492398 14.7965 -0.168589 13.3937 0.456068 12.33L0.994391 11.4143L0.484006 10.7614C-0.188897 9.90177 -0.160972 9.10341 0.572874 8.22087C1.00201 7.70818 1.20769 7.07816 1.29149 6.04258C1.52256 3.20621 3.81044 0.7499 6.7382 0.1964C8.82294 -0.196406 13.838 0.0357066 14.973 0.576453C17.3142 1.69365 19.0181 4.15507 19.0181 6.42263C19.0181 7.22355 19.1653 7.68012 19.5259 8.00916C20.1582 8.58307 20.2166 10.315 19.6275 10.9705C19.2542 11.3837 19.2542 11.4704 19.6275 12.0035C20.2598 12.9116 20.1582 14.6767 19.4345 15.3551C19.1044 15.6638 18.7616 16.1535 18.6702 16.4417C18.5813 16.73 18.1192 17.3447 17.6443 17.8089C16.8952 18.5359 16.5321 18.6761 14.9146 18.8649C12.8578 19.1047 7.90372 19.1098 5.25781 18.8725ZM14.5464 17.6074C16.009 17.4442 16.3975 17.2962 16.8952 16.7172C18.2487 15.1358 17.8855 13.738 16.4128 14.8654C15.3209 15.7046 14.4448 15.7122 13.4774 14.896C13.0635 14.544 12.642 14.2583 12.5429 14.2583C12.4439 14.2583 12.0224 14.544 11.6085 14.896C11.1895 15.2506 10.5319 15.5337 10.1307 15.5337C9.72945 15.5337 9.07178 15.2506 8.6528 14.896C8.2389 14.544 7.79199 14.2583 7.66249 14.2583C7.53299 14.2583 7.15717 14.544 6.82961 14.896C6.02974 15.7505 4.91247 15.7377 4.00087 14.8629C2.70585 13.6156 1.98724 14.7914 3.0131 16.4826C3.28734 16.9366 3.77234 17.3651 4.09229 17.4365C5.66663 17.7911 11.9691 17.8956 14.5464 17.6074ZM6.18972 13.7533C7.09877 12.8963 8.1424 12.8376 9.0413 13.5977C9.47043 13.9625 9.96052 14.2583 10.1307 14.2583C10.3008 14.2583 10.7909 13.9625 11.22 13.5977C12.1189 12.8376 13.1625 12.8963 14.0716 13.7533C14.7724 14.4139 15.1051 14.391 16.0166 13.6207C16.8901 12.8835 17.4107 12.8249 18.2004 13.3809C18.726 13.7508 18.7641 13.7431 18.7641 13.2661C18.7641 12.9856 18.5102 12.5774 18.2004 12.3606C17.7205 12.0214 16.5067 11.9627 10.0621 11.9627H2.49002L1.86536 12.5876C0.895366 13.562 1.08581 14.141 2.11675 13.358C2.80743 12.8325 3.32035 12.8886 4.31574 13.5977C5.39239 14.3655 5.52697 14.3782 6.18972 13.7533ZM3.7825 9.53957C2.53572 8.26423 2.37574 8.20811 1.70792 8.81263C0.633812 9.79209 1.47685 10.6874 3.47271 10.6874H4.90486L3.7825 9.53957ZM11.1463 9.79464C10.6715 9.30491 10.2195 8.9019 10.1383 8.9019C9.9402 8.9019 8.35317 10.3634 8.35317 10.5445C8.35317 10.6236 9.17589 10.6874 10.1814 10.6874H12.0072L11.1463 9.79464ZM18.4594 10.3813C19.1171 9.72067 18.6448 8.38156 17.7611 8.39942C17.5453 8.40452 16.9308 8.92231 16.3975 9.54723L15.4275 10.6874H16.7911C17.5402 10.6874 18.2918 10.5496 18.4594 10.3813ZM7.59139 9.28451L8.4522 8.39176H6.62647C5.62092 8.39176 4.7982 8.47849 4.79566 8.58307C4.79312 8.78457 6.34715 10.1594 6.58837 10.1696C6.66709 10.1747 7.11655 9.77424 7.59139 9.28451ZM14.587 9.47581C15.0695 9.09065 15.4631 8.68764 15.4631 8.58307C15.4631 8.47849 14.6632 8.39176 13.6856 8.39176C12.708 8.39176 11.9081 8.49634 11.9081 8.62388C11.9081 8.84834 13.3479 10.1772 13.5917 10.1772C13.6577 10.1772 14.1071 9.86096 14.587 9.47581ZM17.7002 6.30785C17.8094 5.3641 16.6591 3.19856 15.6332 2.41295C14.488 1.53551 14.1935 1.58653 14.1935 2.65271C14.1935 3.36946 14.0944 3.54545 13.6958 3.54545C13.3327 3.54545 13.1244 3.27763 12.9314 2.55324C12.7055 1.70641 12.5455 1.54316 11.8421 1.43603C10.7426 1.26769 10.6385 1.36462 10.6385 2.55834C10.6385 3.47404 10.5776 3.57351 10.0672 3.49954C9.60756 3.43322 9.4806 3.22917 9.41712 2.46141C9.37395 1.93597 9.23175 1.49215 9.09971 1.47685C7.72851 1.3136 7.50759 1.4743 7.22066 2.84402C7.11909 3.32354 6.91595 3.54545 6.57061 3.54545C6.16433 3.54545 6.06783 3.37201 6.06783 2.65271C6.06783 1.54571 5.71487 1.51766 4.49857 2.52518C3.10198 3.68064 2.03295 6.2951 2.68554 6.95062C2.78203 7.045 6.17956 7.09346 10.2398 7.0552L17.6215 6.98888L17.7002 6.30785Z" fill="white"/>
</svg>
