<svg width="19" height="22" viewBox="0 0 19 22" fill="none" xmlns="http://www.w3.org/2000/svg">
<path d="M0.757522 21.4086C0.069143 20.8714 0 20.6343 0 18.8457C0 16.2686 0.835251 14.0514 2.43091 12.4029C3.81919 10.9629 4.39239 10.8657 6.13206 11.7771C7.83141 12.6657 10.8902 12.6657 12.5896 11.7771C14.3379 10.8629 14.9658 10.96 16.3396 12.3571C17.918 13.96 18.759 15.94 18.9376 18.4771C19.073 20.3914 19.0356 20.5743 18.3385 21.2629L17.5954 22H9.55667C1.86065 22 1.48622 21.9743 0.757522 21.4086ZM7.48866 10.3629C5.71731 9.68571 4.02659 7.21429 4.03811 5.32C4.04675 4.18571 4.90507 2.32857 5.79795 1.51429C6.70523 0.685714 8.3988 0 9.52786 0C10.9536 0 13.1858 1.36571 13.9893 2.72571C14.7526 4.01429 14.9168 5.94 14.3839 7.33714C14.0066 8.32286 12.797 9.62857 11.7514 10.1686C10.9882 10.5657 8.33545 10.6857 7.48866 10.3629Z" fill="currentColor"/>
</svg>
