<svg width="14" height="10" viewBox="0 0 14 10" fill="none" xmlns="http://www.w3.org/2000/svg">
<path d="M0.665928 8H8.66593C8.83585 8.00019 8.99928 8.06525 9.12284 8.1819C9.2464 8.29854 9.32075 8.45797 9.33071 8.6276C9.34067 8.79722 9.28548 8.96425 9.17642 9.09455C9.06736 9.22486 8.91266 9.3086 8.74393 9.32867L8.66593 9.33333H0.665928C0.496008 9.33314 0.332573 9.26808 0.209016 9.15143C0.0854585 9.03479 0.0111048 8.87536 0.00114669 8.70574C-0.00881139 8.53611 0.0463778 8.36908 0.155438 8.23878C0.264498 8.10848 0.419198 8.02474 0.587928 8.00467L0.665928 8ZM0.665928 4H12.6659C12.8358 4.00019 12.9993 4.06525 13.1228 4.1819C13.2464 4.29854 13.3208 4.45797 13.3307 4.6276C13.3407 4.79722 13.2855 4.96425 13.1764 5.09455C13.0674 5.22486 12.9127 5.3086 12.7439 5.32867L12.6659 5.33333H0.665928C0.496008 5.33314 0.332573 5.26808 0.209016 5.15143C0.0854585 5.03479 0.0111048 4.87536 0.00114669 4.70574C-0.00881139 4.53611 0.0463778 4.36908 0.155438 4.23878C0.264498 4.10848 0.419198 4.02474 0.587928 4.00467L0.665928 4ZM0.665928 0H10.6659C10.8358 0.000188472 10.9993 0.0652526 11.1228 0.181899C11.2464 0.298545 11.3208 0.457969 11.3307 0.627596C11.3407 0.797224 11.2855 0.964253 11.1764 1.09455C11.0674 1.22486 10.9127 1.3086 10.7439 1.32867L10.6659 1.33333H0.665928C0.496008 1.33314 0.332573 1.26808 0.209016 1.15143C0.0854585 1.03479 0.0111048 0.875365 0.00114669 0.705737C-0.00881139 0.536109 0.0463778 0.36908 0.155438 0.238778C0.264498 0.108476 0.419198 0.0247357 0.587928 0.00466665L0.665928 0Z" fill="white"/>
</svg>
