<svg width="24" height="22" viewBox="0 0 24 22" fill="none" xmlns="http://www.w3.org/2000/svg">
<path d="M0.740245 21.1313C0.334396 20.6546 0 19.9608 0 19.5913C0 18.9087 0.105742 18.779 1.51478 17.7326C2.63802 16.9033 2.50655 15.6003 1.21755 14.8105C0.105751 14.1308 -0.191498 13.2649 0.29152 12.1113C0.908869 10.6418 1.24042 10.5854 9.50317 10.4838L17.1486 10.3879V11.4005C17.1486 12.21 17.2572 12.4103 17.703 12.4103C18.1175 12.4103 18.2775 12.1818 18.3461 11.4936C18.4347 10.5797 18.4404 10.5769 20.0067 10.591C22.2703 10.6079 23.0791 10.89 23.5736 11.8349C24.2052 13.0392 24.1252 14.0208 23.3649 14.4213C21.6929 15.3013 21.5358 16.8215 23.0077 17.93C24.1166 18.7649 24.2738 19.5462 23.5907 20.852C23.0563 21.8703 22.679 22 20.2696 22H18.2918V21.1538C18.2918 20.4967 18.1661 20.3077 17.7202 20.3077C17.2743 20.3077 17.1486 20.4967 17.1486 21.1538V22H9.31454H1.48049L0.740245 21.1313ZM18.1489 17.8877C18.1489 17.3462 18.0031 17.0641 17.7231 17.0641C17.2543 17.0641 17.0085 17.8454 17.2686 18.5138C17.5401 19.2133 18.1489 18.779 18.1489 17.8877ZM18.2432 14.9769C18.3776 14.0631 18.0975 13.5215 17.5887 13.7133C17.1457 13.8826 16.9714 15.2449 17.3458 15.6115C17.6888 15.9528 18.146 15.6313 18.2432 14.9769ZM2.8581 9.37256C2.8581 9.2541 4.26714 7.77051 5.99057 6.07538C8.983 3.13077 9.14591 3.01513 9.65751 3.47205C10.7207 4.41974 11.3295 3.79923 10.3663 2.74718C9.88901 2.2282 9.9176 2.16333 11.0694 1.10282C11.9726 0.270769 12.5042 0 13.2358 0C14.5649 0 15.2422 0.775641 15.0021 2.02513C14.7592 3.3141 15.5852 4.0841 17.1229 3.99385C18.0089 3.94308 18.3004 4.06154 18.6805 4.6341C19.3922 5.70308 19.2579 6.28692 17.9689 7.73103L16.7885 9.05385L16.1768 8.48974C15.7538 8.09769 15.4394 8.00179 15.1451 8.17949C14.8107 8.38538 14.7964 8.50949 15.0793 8.78872C15.2737 8.98051 15.4337 9.24 15.4337 9.3641C15.4337 9.4882 12.6042 9.58974 9.14591 9.58974C5.68761 9.58974 2.8581 9.49102 2.8581 9.37256ZM14.5763 7.24872C14.5763 6.77769 13.9961 6.20513 13.5188 6.20513C13.0529 6.20513 13.0358 6.82846 13.4902 7.27692C13.9447 7.72538 14.5763 7.70846 14.5763 7.24872ZM12.7271 5.62974C12.9843 5.21513 12.327 4.51282 11.6839 4.51282C11.0237 4.51282 11.0065 4.73846 11.6182 5.40692C12.1555 5.99359 12.4613 6.05282 12.7271 5.62974Z" fill="currentColor"/>
</svg>
