<svg width="17" height="16" viewBox="0 0 17 16" fill="none" xmlns="http://www.w3.org/2000/svg">
<path d="M10.6222 11.2104L8.50636 15.2816C8.41597 15.4665 8.28588 15.6017 8.1161 15.6871C7.94632 15.7725 7.77201 15.8052 7.59316 15.7851C7.41432 15.7651 7.24806 15.7051 7.09439 15.6052C6.94072 15.5054 6.83034 15.3553 6.76326 15.155L5.31543 10.7947L0.777216 10.0474C0.56843 10.0086 0.399876 9.92193 0.271556 9.78729C0.143235 9.65265 0.0605687 9.49524 0.0235565 9.31507C-0.0134557 9.13489 -0.00685406 8.96429 0.0433622 8.80326C0.0935785 8.64223 0.204574 8.491 0.376348 8.34958L4.08357 5.60819L3.39769 1.08679C3.36611 0.884047 3.3964 0.698941 3.48858 0.531476C3.58075 0.36401 3.7006 0.235118 3.84814 0.144797C3.99569 0.054476 4.16499 0.00635388 4.35605 0.000429564C4.54711 -0.00549426 4.72575 0.0517115 4.89195 0.172048L8.60672 2.83923L12.7342 0.784393C12.9392 0.695944 13.1243 0.66587 13.2897 0.694174C13.4551 0.722479 13.61 0.79419 13.7545 0.909306C13.899 1.02442 14.0021 1.16974 14.0636 1.34525C14.1252 1.52077 14.1253 1.71021 14.064 1.91356L12.6656 6.29516L15.8903 9.56766C16.0379 9.71794 16.1213 9.88449 16.1407 10.0673C16.1601 10.2501 16.1379 10.4255 16.0741 10.5933C16.0103 10.7612 15.9019 10.9016 15.7489 11.0145C15.5959 11.1274 15.4164 11.1817 15.2103 11.1776L10.6222 11.2104Z" fill="#8A23CE"/>
</svg>
