<svg width="26" height="23" viewBox="0 0 26 23" fill="none" xmlns="http://www.w3.org/2000/svg">
<path d="M13 23C12.8204 22.9995 12.6461 22.9406 12.5043 22.8327C7.98607 19.3902 4.87369 16.4259 2.69584 13.5014C-0.0833549 9.76416 -0.717207 6.31376 0.810539 3.24585C1.89946 1.05448 5.02809 -0.738451 8.68493 0.305435C10.4285 0.79928 11.9497 1.85834 13 3.3096C14.0503 1.85834 15.5715 0.79928 17.3151 0.305435C20.9638 -0.722514 24.1005 1.05448 25.1895 3.24585C26.7172 6.31376 26.0834 9.76416 23.3042 13.5014C21.1263 16.4259 18.0139 19.3902 13.4957 22.8327C13.3539 22.9406 13.1796 22.9995 13 23ZM6.6046 1.60432C5.73447 1.57111 4.87156 1.7709 4.10847 2.18224C3.34539 2.59358 2.71096 3.20094 2.27327 3.93912C1.0137 6.47313 1.58254 9.29401 4.0123 12.5532C6.59351 15.82 9.61731 18.7262 13 21.1911C16.3822 18.7286 19.4059 15.8252 21.9877 12.5611C24.4256 9.29401 24.9863 6.47313 23.7267 3.94708C22.9141 2.35336 20.4762 1.08636 17.762 1.83541C16.8917 2.08761 16.0849 2.5157 15.3935 3.09211C14.7021 3.66853 14.1415 4.3805 13.7476 5.18222C13.6864 5.32837 13.5822 5.45337 13.4484 5.54135C13.3146 5.62932 13.1571 5.6763 12.9959 5.6763C12.8348 5.6763 12.6773 5.62932 12.5435 5.54135C12.4096 5.45337 12.3055 5.32837 12.2443 5.18222C11.8534 4.3785 11.2937 3.66486 10.6018 3.08808C9.91002 2.51131 9.10169 2.08442 8.22986 1.83541C7.70165 1.68486 7.15466 1.60708 6.6046 1.60432Z" fill="white"/>
</svg>
