<svg width="22" height="22" viewBox="0 0 22 22" fill="none" xmlns="http://www.w3.org/2000/svg">
<path d="M3.32372 21.4081C2.57781 20.8196 2.57209 20.7824 2.57209 16.9796C2.57209 13.6769 2.50922 13.1426 2.12055 13.1426C1.51182 13.1426 0 11.594 0 10.9683C0 10.6912 2.34346 8.1084 5.2042 5.23132C9.26525 1.15141 10.5742 0 11.1457 0C11.7173 0 13.0005 1.12569 16.9444 5.08846C21.2112 9.3798 22.0057 10.3112 22 11.0169C21.9971 12.0855 21.7913 12.3826 20.6482 12.9683L19.7194 13.4426V17.1282C19.7194 20.771 19.7108 20.8224 18.9678 21.4081C18.3419 21.8967 17.8075 21.9995 15.8641 21.9995H13.5121L13.3292 20.2424C13.2291 19.2767 13.1463 17.8882 13.1463 17.1568C13.1463 15.5168 12.7947 15.1425 11.2543 15.1425C9.17094 15.1425 9.14522 15.1768 9.14236 18.1025C9.13665 22.1281 9.22524 21.9995 6.43595 21.9995C4.48402 21.9995 3.94959 21.8967 3.32372 21.4081Z" fill="currentColor"/>
</svg>
