<svg width="9" height="9" viewBox="0 0 9 9" fill="none" xmlns="http://www.w3.org/2000/svg">
<path fill-rule="evenodd" clip-rule="evenodd" d="M6.73522 5.97408L9 8.24339L8.24543 9L5.98278 6.73283C5.22841 7.30211 4.28685 7.56396 3.34757 7.46569C2.40829 7.36742 1.54102 6.91632 0.920289 6.20318C0.299555 5.49003 -0.0285675 4.56778 0.0019531 3.622C0.0324737 2.67623 0.419372 1.77713 1.08479 1.10566C1.7502 0.434186 2.64475 0.0401706 3.5884 0.002906C4.53205 -0.0343586 5.45476 0.287894 6.17086 0.904812C6.88695 1.52173 7.34326 2.38752 7.44797 3.32796C7.55268 4.26839 7.29802 5.21367 6.73522 5.97355V5.97408ZM6.40329 3.74328C6.40329 3.03421 6.12218 2.35418 5.62179 1.85279C5.1214 1.35141 4.44273 1.06973 3.73508 1.06973C3.02742 1.06973 2.34875 1.35141 1.84836 1.85279C1.34798 2.35418 1.06686 3.03421 1.06686 3.74328C1.06686 4.45234 1.34798 5.13237 1.84836 5.63376C2.34875 6.13514 3.02742 6.41682 3.73508 6.41682C4.44273 6.41682 5.1214 6.13514 5.62179 5.63376C6.12218 5.13237 6.40329 4.45234 6.40329 3.74328Z" fill="white"/>
</svg>
